HIERARCHY
ROOT Hips
{
  OFFSET -398.681 91.5775 567.273
  CHANNELS 6 Xposition Yposition Zposition Zrotation Xrotation Yrotation
  JOINT Spine
  {
    OFFSET 0 8 0
    CHANNELS 6 Xposition Yposition Zposition Zrotation Xrotation Yrotation
    JOINT Spine1
    {
      OFFSET 4.47768e-05 8 0
      CHANNELS 6 Xposition Yposition Zposition Zrotation Xrotation Yrotation
      JOINT Spine2
      {
        OFFSET 1.37781e-05 8 -1.35371e-05
        CHANNELS 6 Xposition Yposition Zposition Zrotation Xrotation Yrotation
        JOINT Spine3
        {
          OFFSET 0 8 0
          CHANNELS 6 Xposition Yposition Zposition Zrotation Xrotation Yrotation
          JOINT Neck
          {
            OFFSET 4.92325e-05 17 -5.28174e-05
            CHANNELS 6 Xposition Yposition Zposition Zrotation Xrotation Yrotation
            JOINT Head
            {
              OFFSET 4.62475e-05 10.8 -4.59271e-05
              CHANNELS 6 Xposition Yposition Zposition Zrotation Xrotation Yrotation
              End Site
              {
                OFFSET 0 20.25 0
              }
            }
          }
          JOINT LeftShoulder
          {
            OFFSET 5 17 -6.19618e-05
            CHANNELS 6 Xposition Yposition Zposition Zrotation Xrotation Yrotation
            JOINT LeftShoulder2
            {
              OFFSET 6.45 0 0
              CHANNELS 6 Xposition Yposition Zposition Zrotation Xrotation Yrotation
              JOINT LeftArm
              {
                OFFSET 6.45004 5.26443e-05 -0.000272403
                CHANNELS 6 Xposition Yposition Zposition Zrotation Xrotation Yrotation
                JOINT LeftForeArm
                {
                  OFFSET 0 -32.4 -2.00002
                  CHANNELS 6 Xposition Yposition Zposition Zrotation Xrotation Yrotation
                  JOINT LeftHand
                  {
                    OFFSET -6.8921e-05 -25.65 1.99994
                    CHANNELS 6 Xposition Yposition Zposition Zrotation Xrotation Yrotation
                    JOINT LeftHandThumb1
                    {
                      OFFSET -0.50006 -1.50008 2.65012
                      CHANNELS 6 Xposition Yposition Zposition Zrotation Xrotation Yrotation
                      JOINT LeftHandThumb2
                      {
                        OFFSET 7.26145e-05 -3.80006 3.69996
                        CHANNELS 6 Xposition Yposition Zposition Zrotation Xrotation Yrotation
                        JOINT LeftHandThumb3
                        {
                          OFFSET 1.86748e-05 -3.00008 2.69996
                          CHANNELS 6 Xposition Yposition Zposition Zrotation Xrotation Yrotation
                          End Site
                          {
                            OFFSET -9.42259e-05 -2.30008 1.79993
                          }
                        }
                      }
                    }
                    JOINT LeftHandIndex
                    {
                      OFFSET -1.04634e-05 -1.90006 1.60004
                      CHANNELS 6 Xposition Yposition Zposition Zrotation Xrotation Yrotation
                      JOINT LeftHandIndex1
                      {
                        OFFSET -9.44739e-05 -8.29994 1.90004
                        CHANNELS 6 Xposition Yposition Zposition Zrotation Xrotation Yrotation
                        JOINT LeftHandIndex2
                        {
                          OFFSET 0 -4.49997 -6.94458e-05
                          CHANNELS 6 Xposition Yposition Zposition Zrotation Xrotation Yrotation
                          JOINT LeftHandIndex3
                          {
                            OFFSET -9.05003e-05 -3.40009 -0.000118993
                            CHANNELS 6 Xposition Yposition Zposition Zrotation Xrotation Yrotation
                            End Site
                            {
                              OFFSET -0.00095473 -2.59989 0
                            }
                          }
                        }
                      }
                    }
                    JOINT LeftHandMiddle
                    {
                      OFFSET -0.24992 -2.19996 0.39994
                      CHANNELS 6 Xposition Yposition Zposition Zrotation Xrotation Yrotation
                      JOINT LeftHandMiddle1
                      {
                        OFFSET -4.87747e-05 -8.30008 1.00002
                        CHANNELS 6 Xposition Yposition Zposition Zrotation Xrotation Yrotation
                        JOINT LeftHandMiddle2
                        {
                          OFFSET -3.63437e-05 -4.64999 0
                          CHANNELS 6 Xposition Yposition Zposition Zrotation Xrotation Yrotation
                          JOINT LeftHandMiddle3
                          {
                            OFFSET 3.63773e-05 -3.30009 -3.03873e-05
                            CHANNELS 6 Xposition Yposition Zposition Zrotation Xrotation Yrotation
                            End Site
                            {
                              OFFSET 6.82185e-05 -2.69994 3.91656e-05
                            }
                          }
                        }
                      }
                    }
                    JOINT LeftHandRing
                    {
                      OFFSET -0.500046 -2.15006 -0.799981
                      CHANNELS 6 Xposition Yposition Zposition Zrotation Xrotation Yrotation
                      JOINT LeftHandRing1
                      {
                        OFFSET 0 -7.75 -0.199983
                        CHANNELS 6 Xposition Yposition Zposition Zrotation Xrotation Yrotation
                        JOINT LeftHandRing2
                        {
                          OFFSET 2.16852e-05 -3.8 -6.42951e-05
                          CHANNELS 6 Xposition Yposition Zposition Zrotation Xrotation Yrotation
                          JOINT LeftHandRing3
                          {
                            OFFSET -1.37507e-05 -3.40007 -0.000108261
                            CHANNELS 6 Xposition Yposition Zposition Zrotation Xrotation Yrotation
                            End Site
                            {
                              OFFSET 2.47459e-05 -2.59989 2.09675e-05
                            }
                          }
                        }
                      }
                    }
                    JOINT LeftHandPinky
                    {
                      OFFSET -0.750063 -1.74997 -1.85009
                      CHANNELS 6 Xposition Yposition Zposition Zrotation Xrotation Yrotation
                      JOINT LeftHandPinky1
                      {
                        OFFSET -8.95776e-05 -7.14995 -0.999932
                        CHANNELS 6 Xposition Yposition Zposition Zrotation Xrotation Yrotation
                        JOINT LeftHandPinky2
                        {
                          OFFSET 3.65383e-05 -2.99992 3.24824e-05
                          CHANNELS 6 Xposition Yposition Zposition Zrotation Xrotation Yrotation
                          JOINT LeftHandPinky3
                          {
                            OFFSET -6.50905e-05 -2.35001 -1.40532e-05
                            CHANNELS 6 Xposition Yposition Zposition Zrotation Xrotation Yrotation
                            End Site
                            {
                              OFFSET 1.46602e-05 -2.10011 -4.24468e-05
                            }
                          }
                        }
                      }
                    }
                  }
                }
              }
            }
          }
          JOINT RightShoulder
          {
            OFFSET -5.00002 17 -2.47675e-05
            CHANNELS 6 Xposition Yposition Zposition Zrotation Xrotation Yrotation
            JOINT RightShoulder2
            {
              OFFSET -6.45 0 0
              CHANNELS 6 Xposition Yposition Zposition Zrotation Xrotation Yrotation
              JOINT RightArm
              {
                OFFSET -6.44996 1.37337e-05 -1.1489e-05
                CHANNELS 6 Xposition Yposition Zposition Zrotation Xrotation Yrotation
                JOINT RightForeArm
                {
                  OFFSET 3.67176e-05 -32.4 -2.00005
                  CHANNELS 6 Xposition Yposition Zposition Zrotation Xrotation Yrotation
                  JOINT RightHand
                  {
                    OFFSET 6.27346e-05 -25.65 2.00001
                    CHANNELS 6 Xposition Yposition Zposition Zrotation Xrotation Yrotation
                    JOINT RightHandThumb1
                    {
                      OFFSET 0.500069 -1.49999 2.65002
                      CHANNELS 6 Xposition Yposition Zposition Zrotation Xrotation Yrotation
                      JOINT RightHandThumb2
                      {
                        OFFSET 2.3938e-05 -3.8 3.70007
                        CHANNELS 6 Xposition Yposition Zposition Zrotation Xrotation Yrotation
                        JOINT RightHandThumb3
                        {
                          OFFSET -6.50568e-05 -3 2.69998
                          CHANNELS 6 Xposition Yposition Zposition Zrotation Xrotation Yrotation
                          End Site
                          {
                            OFFSET 5.42368e-05 -2.30001 1.79999
                          }
                        }
                      }
                    }
                    JOINT RightHandIndex
                    {
                      OFFSET 5.48583e-05 -1.9 1.60007
                      CHANNELS 6 Xposition Yposition Zposition Zrotation Xrotation Yrotation
                      JOINT RightHandIndex1
                      {
                        OFFSET -4.98322e-05 -8.30001 1.90003
                        CHANNELS 6 Xposition Yposition Zposition Zrotation Xrotation Yrotation
                        JOINT RightHandIndex2
                        {
                          OFFSET 9.60662e-05 -4.50003 0
                          CHANNELS 6 Xposition Yposition Zposition Zrotation Xrotation Yrotation
                          JOINT RightHandIndex3
                          {
                            OFFSET -5.00499e-05 -3.4 -2.77044e-05
                            CHANNELS 6 Xposition Yposition Zposition Zrotation Xrotation Yrotation
                            End Site
                            {
                              OFFSET 5.81481e-05 -2.59997 1.05277e-05
                            }
                          }
                        }
                      }
                    }
                    JOINT RightHandMiddle
                    {
                      OFFSET 0.249973 -2.19997 0.4001
                      CHANNELS 6 Xposition Yposition Zposition Zrotation Xrotation Yrotation
                      JOINT RightHandMiddle1
                      {
                        OFFSET -9.86141e-05 -8.30003 0.999947
                        CHANNELS 6 Xposition Yposition Zposition Zrotation Xrotation Yrotation
                        JOINT RightHandMiddle2
                        {
                          OFFSET 0 -4.65001 0.000101325
                          CHANNELS 6 Xposition Yposition Zposition Zrotation Xrotation Yrotation
                          JOINT RightHandMiddle3
                          {
                            OFFSET -6.07276e-05 -3.29994 -7.99938e-05
                            CHANNELS 6 Xposition Yposition Zposition Zrotation Xrotation Yrotation
                            End Site
                            {
                              OFFSET 6.72227e-05 -2.70007 -3.17542e-05
                            }
                          }
                        }
                      }
                    }
                    JOINT RightHandRing
                    {
                      OFFSET 0.50005 -2.14992 -0.800011
                      CHANNELS 6 Xposition Yposition Zposition Zrotation Xrotation Yrotation
                      JOINT RightHandRing1
                      {
                        OFFSET -3.8411e-05 -7.74999 -0.200116
                        CHANNELS 6 Xposition Yposition Zposition Zrotation Xrotation Yrotation
                        JOINT RightHandRing2
                        {
                          OFFSET -2.52082e-05 -3.78125 8.58867e-05
                          CHANNELS 6 Xposition Yposition Zposition Zrotation Xrotation Yrotation
                          JOINT RightHandRing3
                          {
                            OFFSET -7.75355e-05 -3.39991 -3.83906e-05
                            CHANNELS 6 Xposition Yposition Zposition Zrotation Xrotation Yrotation
                            End Site
                            {
                              OFFSET -2.20921e-05 -2.59994 1.70512e-05
                            }
                          }
                        }
                      }
                    }
                    JOINT RightHandPinky
                    {
                      OFFSET 0.750031 -1.74996 -1.85002
                      CHANNELS 6 Xposition Yposition Zposition Zrotation Xrotation Yrotation
                      JOINT RightHandPinky1
                      {
                        OFFSET 7.06419e-05 -7.14993 -0.999963
                        CHANNELS 6 Xposition Yposition Zposition Zrotation Xrotation Yrotation
                        JOINT RightHandPinky2
                        {
                          OFFSET -1.74991e-05 -2.99995 -9.51855e-05
                          CHANNELS 6 Xposition Yposition Zposition Zrotation Xrotation Yrotation
                          JOINT RightHandPinky3
                          {
                            OFFSET 1.99844e-05 -2.35002 -7.44473e-05
                            CHANNELS 6 Xposition Yposition Zposition Zrotation Xrotation Yrotation
                            End Site
                            {
                              OFFSET 0 -2.09997 8.94911e-05
                            }
                          }
                        }
                      }
                    }
                  }
                }
              }
            }
          }
        }
      }
    }
  }
  JOINT LeftUpLeg
  {
    OFFSET 7.99999 0 -1.11125e-05
    CHANNELS 6 Xposition Yposition Zposition Zrotation Xrotation Yrotation
    JOINT LeftLeg
    {
      OFFSET 4.07102e-05 -45 -0.999962
      CHANNELS 6 Xposition Yposition Zposition Zrotation Xrotation Yrotation
      JOINT LeftFoot
      {
        OFFSET 9.57701e-05 -41 -1.99993
        CHANNELS 6 Xposition Yposition Zposition Zrotation Xrotation Yrotation
        JOINT LeftToeBase
        {
          OFFSET -5.11895e-05 -7.5 12.5
          CHANNELS 6 Xposition Yposition Zposition Zrotation Xrotation Yrotation
          JOINT LeftFootToe
          {
            OFFSET 0 0 4
            CHANNELS 6 Xposition Yposition Zposition Zrotation Xrotation Yrotation
            End Site
            {
              OFFSET 0 0 0
            }
          }
        }
      }
    }
  }
  JOINT RightUpLeg
  {
    OFFSET -7.99999 0 1.11125e-05
    CHANNELS 6 Xposition Yposition Zposition Zrotation Xrotation Yrotation
    JOINT RightLeg
    {
      OFFSET 7.92676e-05 -45 -1.00001
      CHANNELS 6 Xposition Yposition Zposition Zrotation Xrotation Yrotation
      JOINT RightFoot
      {
        OFFSET -4.21337e-05 -41 -2
        CHANNELS 6 Xposition Yposition Zposition Zrotation Xrotation Yrotation
        JOINT RightToeBase
        {
          OFFSET -4.41839e-05 -7.5 12.5
          CHANNELS 6 Xposition Yposition Zposition Zrotation Xrotation Yrotation
          JOINT RightFootToe
          {
            OFFSET 0 0 4
            CHANNELS 6 Xposition Yposition Zposition Zrotation Xrotation Yrotation
            End Site
            {
              OFFSET 0 0 0
            }
          }
        }
      }
    }
  }
}
MOTION
Frames:	3
Frame Time:	0.0111111
-398.68 91.5812 567.272 -0.677681 -5.28159 70.9191 0 8 -2.84217e-14 10.8065 -3.51788 -2.08946 0 8 -2.84217e-14 -0.588934 1.86146 -0.687409 0 8 2.84217e-14 -0.297248 0.939248 -0.342558 0 8 -5.68434e-14 -0.298004 0.932511 -0.341839 0 17 8.52651e-14 4.92571 5.64204 5.41652 1.13687e-13 10.8 -2.84217e-14 -4.51656 14.7575 13.085 5 17 2.84217e-14 7.94484 -0.765698 -5.08591 6.45 0 -5.68434e-14 -0.106383 0.132738 0.466535 6.45 0 0 11.7428 -33.399 11.0306 -1.13687e-13 -32.4 -2 -32.3976 -69.6068 20.9918 0 -25.65 2 19.9548 10.0702 12.5366 -0.5 -1.5 2.65 3.44095 -7.72203 -8.31873 0 -3.8 3.7 0.00252622 0.809229 -0.00223525 -1.13687e-13 -3 2.7 0.0320988 25.4282 -0.0177008 0 -1.9 1.6 -7.85888e-07 5.76596e-06 1.71796e-05 0 -8.3 1.9 -11.5042 24.6965 3.09826 0 -4.5 0 -0.152743 -0.00534998 0.00539613 0 -3.4 5.68434e-14 6.5073e-06 0.00388016 0.00548883 -0.25 -2.2 0.4 -7.85888e-07 5.76596e-06 1.71796e-05 0 -8.3 1 -31.2027 24.4429 8.78452 0 -4.65 0 -0.926223 0.00955249 0.000337159 0 -3.3 0 -0.9061 0.00900315 0.000819686 -0.5 -2.15 -0.8 -7.85888e-07 5.76596e-06 1.71796e-05 -1.13687e-13 -7.75 -0.2 -54.0972 16.8933 12.4879 1.13687e-13 -3.8 5.68434e-14 -0.00138598 0.0687937 -0.0222868 0 -3.4 -5.68434e-14 -4.4777e-05 0.0592889 0.00399049 -0.75 -1.75 -1.85 -7.85888e-07 5.76596e-06 1.71796e-05 0 -7.15 -1 -71.8773 14.1708 17.604 2.84217e-14 -3 5.68434e-14 -6.11473e-05 -0.0369306 -0.00915599 -2.84217e-14 -2.35 0 5.48303e-06 -0.0357984 0.0317929 -5 17 2.84217e-14 9.97466 1.67358 -1.44875 -6.45 5.68434e-14 2.84217e-14 -0.729754 0.018597 -0.207715 -6.45 0 -2.84217e-14 -2.36474 -39.6805 23.1747 0 -32.4 -2 107.084 -76.1547 119.724 0 -25.65 2 -28.4872 -11.7827 41.5264 0.5 -1.5 2.65 138.116 41.8198 -104.042 0 -3.8 3.7 0.210368 13.872 0.0344767 0 -3 2.7 -0.454766 41.4001 -0.0256059 1.13687e-13 -1.9 1.6 -5.54192e-05 2.18203e-05 -2.90853e-05 0 -8.3 1.9 4.69662 -2.69747 0.1318 0 -4.5 0 9.37329 0.0344835 0.0265199 0 -3.4 -1.13687e-13 8.26808 0.031897 0.0131611 0.25 -2.2 0.4 -5.54192e-05 2.18203e-05 -2.90853e-05 0 -8.3 1 19.6206 2.47834 -0.684761 0 -4.65 -5.68434e-14 15.758 -0.0298251 -0.00361354 0 -3.3 0 13.0079 -0.0205846 -0.00121732 0.5 -2.15 -0.8 -5.54192e-05 2.18203e-05 -2.90853e-05 0 -7.75 -0.2 43.5959 0.968102 -2.12145 0 -3.8 -5.68434e-14 15.2386 -0.0389922 -0.00262708 0 -3.4 0 12.6382 -0.0273258 -0.00569965 0.75 -1.75 -1.85 -5.54192e-05 2.18203e-05 -2.90853e-05 0 -7.15 -1 62.0733 4.26363 -7.34919 0 -3 0 81.0988 -4.71515e-05 0.016723 -5.68434e-14 -2.35 5.68434e-14 67.9188 0.0263052 0.0249563 8 -7.10543e-15 5.68434e-14 16.0369 -17.4858 21.2983 0 -45 -1 -0.124622 35.1755 -8.41174 1.13687e-13 -41 -2 -0.60015 -17.2005 5.11533 0 -7.5 12.5 4.28011e-06 1.7438 -9.35285e-06 0 1.77636e-15 4 5.69781 -7.2099 11.0531 -8 -1.42109e-14 -5.68434e-14 1.67638 4.78265 -24.1937 0 -45 -1 0.330007 11.4854 4.17528 0 -41 -2 3.53119 -13.6608 -18.3631 0 -7.5 12.5 -7.07024e-07 1.50361e-06 -3.98667e-05 1.13687e-13 -2.22045e-16 4 -2.09533 3.48485 22.5495 
-398.687 91.5614 567.314 -0.649763 -5.27577 71.1652 0 8 -2.84217e-14 10.8565 -3.47743 -2.06715 0 8 -5.68434e-14 -0.558936 1.86681 -0.687411 1.13687e-13 8 0 -0.282259 0.939248 -0.342558 0 8 0 -0.283092 0.933474 -0.34215 -1.13687e-13 17 5.68434e-14 4.91929 5.73051 5.40086 -1.13687e-13 10.8 2.84217e-14 -4.49494 14.7634 13.0521 5 17 2.84217e-14 7.92388 -0.580436 -5.03517 6.45 0 -1.13687e-13 -0.116956 0.142021 0.461261 6.45 -5.68434e-14 0 11.4554 -33.541 10.8025 0 -32.4 -2 -32.3687 -69.8732 21.2436 -1.13687e-13 -25.65 2 19.456 9.7687 12.7996 -0.5 -1.5 2.65 3.68776 -7.80338 -8.43549 0 -3.8 3.7 0.00252594 0.802163 -0.00223525 0 -3 2.7 0.0125953 25.6318 -0.0304013 0 -1.9 1.6 -7.85888e-07 5.76596e-06 1.71796e-05 0 -8.3 1.9 -10.968 24.2175 2.91317 0 -4.5 5.68434e-14 -0.152743 -0.00534998 0.00539613 0 -3.4 5.68434e-14 6.5073e-06 0.00388016 0.00548883 -0.25 -2.2 0.4 -7.85888e-07 5.76596e-06 1.71796e-05 0 -8.3 1 -30.3446 23.8911 8.37697 0 -4.65 0 -0.867122 0.00955249 0.00602072 5.68434e-14 -3.3 5.68434e-14 -0.847293 0.00900315 0.00704237 -0.5 -2.15 -0.8 -7.85888e-07 5.76596e-06 1.71796e-05 0 -7.75 -0.2 -53.6756 16.5816 12.2115 0 -3.8 0 -0.00138598 0.0687937 -0.0222868 0 -3.4 0 -4.4777e-05 0.0592889 0.00399049 -0.75 -1.75 -1.85 -7.85888e-07 5.76596e-06 1.71796e-05 0 -7.15 -1 -71.3868 14.0766 17.3024 -5.68434e-14 -3 0 -6.11473e-05 -0.0369306 -0.00915599 2.84217e-14 -2.35 0 5.48303e-06 -0.0357984 0.0317929 -5 17 -2.84217e-14 9.93123 1.86836 -1.42585 -6.45 0 -2.84217e-14 -0.74873 0.0151182 -0.221323 -6.45 0 0 -1.89776 -39.9099 23.6986 0 -32.4 -2 108.516 -76.3486 121.54 0 -25.65 2 -28.4166 -12.3439 42.495 0.5 -1.5 2.65 138.647 40.5787 -104.179 0 -3.8 3.7 0.210368 13.872 0.0344767 0 -3 2.7 -0.454766 41.4001 -0.0256059 1.13687e-13 -1.9 1.6 -5.54192e-05 2.18203e-05 -2.90853e-05 0 -8.3 1.9 5.5123 -2.77336 0.141387 0 -4.5 -1.13687e-13 10.2036 0.032954 0.0225951 1.13687e-13 -3.4 0 8.91626 0.0290008 0.0111492 0.25 -2.2 0.4 -5.54192e-05 2.18203e-05 -2.90853e-05 0 -8.3 1 20.9097 2.34178 -0.713976 0 -4.65 -5.68434e-14 15.2755 -0.0225998 -0.00361354 0 -3.3 5.68434e-14 12.6726 -0.0160066 -0.00121732 0.5 -2.15 -0.8 -5.54192e-05 2.18203e-05 -2.90853e-05 0 -7.75 -0.2 45.373 0.562164 -2.09556 0 -3.8 0 14.678 -0.0288954 -0.00262708 -5.68434e-14 -3.4 -1.13687e-13 12.2467 -0.0201937 -0.00569965 0.75 -1.75 -1.85 -5.54192e-05 2.18203e-05 -2.90853e-05 -1.13687e-13 -7.15 -1 63.722 3.6265 -7.33232 0 -3 0 80.6925 -4.71515e-05 0.016511 -5.68434e-14 -2.35 0 67.1833 0.0238247 0.0238484 8 7.10543e-15 0 16.1735 -17.5194 21.619 0 -45 -1 -0.131431 35.2318 -8.40574 -1.13687e-13 -41 -2 -0.699207 -16.9436 4.56654 0 -7.5 12.5 4.28011e-06 1.7438 -9.35285e-06 0 1.77636e-15 4 5.74425 -7.40365 11.0936 -8 0 -5.68434e-14 1.70227 4.73206 -24.2847 0 -45 -1 0.329425 11.6694 4.17803 -2.27374e-13 -41 -2 3.46855 -13.8004 -18.6011 0 -7.5 12.5 -7.07024e-07 1.50361e-06 -3.98667e-05 -1.13687e-13 0 4 -2.0711 3.55512 22.5831 
-398.689 91.5422 567.356 -0.624395 -5.27056 71.4165 -1.13687e-13 8 -2.84217e-14 10.9085 -3.43119 -2.04796 -1.13687e-13 8 2.84217e-14 -0.528017 1.87202 -0.687413 -1.13687e-13 8 5.68434e-14 -0.266812 0.939248 -0.342558 0 8 0 -0.266979 0.934068 -0.342445 0 17 2.84217e-14 4.90908 5.82795 5.38645 0 10.8 8.52651e-14 -4.47933 14.772 13.0234 5 17 2.84217e-14 7.9004 -0.398621 -4.98699 6.45 0 2.84217e-14 -0.127515 0.147033 0.457451 6.45 5.68434e-14 0 11.1295 -33.6522 10.5263 0 -32.4 -2 -32.2534 -70.1815 21.6093 0 -25.65 2 18.8179 9.49524 13.0431 -0.5 -1.5 2.65 4.04768 -7.95083 -8.71147 0 -3.8 3.7 0.00252414 0.755846 -0.00223523 0 -3 2.7 0.00681442 26.666 -0.0373488 0 -1.9 1.6 -7.85888e-07 5.76596e-06 1.71796e-05 0 -8.3 1.9 -10.4119 23.6903 2.72384 1.13687e-13 -4.5 0 -0.152743 -0.00534998 0.00539613 -1.13687e-13 -3.4 -5.68434e-14 6.5073e-06 0.00388016 0.00548883 -0.25 -2.2 0.4 -7.85888e-07 5.76596e-06 1.71796e-05 0 -8.3 1 -29.4147 23.2834 7.94562 5.68434e-14 -4.65 -5.68434e-14 -0.776501 0.00955249 0.0107079 -5.68434e-14 -3.3 -5.68434e-14 -0.757942 0.00900315 0.0121632 -0.5 -2.15 -0.8 -7.85888e-07 5.76596e-06 1.71796e-05 0 -7.75 -0.2 -53.1427 16.2686 11.9082 5.68434e-14 -3.8 0 -0.00138598 0.0687937 -0.0222868 0 -3.4 0 -4.4777e-05 0.0592889 0.00399049 -0.75 -1.75 -1.85 -7.85888e-07 5.76596e-06 1.71796e-05 0 -7.15 -1 -70.7608 14.0008 16.9668 0 -3 0 -6.11473e-05 -0.0369306 -0.00915599 -2.84217e-14 -2.35 0 5.48303e-06 -0.0357984 0.0317929 -5 17 5.68434e-14 9.87912 2.06742 -1.42634 -6.45 -5.68434e-14 2.84217e-14 -0.76885 0.00628465 -0.239885 -6.45 5.68434e-14 5.68434e-14 -1.42313 -40.13 24.2488 0 -32.4 -2 110.084 -76.5321 123.48 0 -25.65 2 -28.4027 -12.9354 43.3952 0.5 -1.5 2.65 139.269 39.4038 -104.326 0 -3.8 3.7 0.210368 13.872 0.0344767 1.13687e-13 -3 2.7 -0.454766 41.4001 -0.0256059 0 -1.9 1.6 -5.54192e-05 2.18203e-05 -2.90853e-05 0 -8.3 1.9 6.34888 -2.78267 0.14827 1.13687e-13 -4.5 -5.68434e-14 11.0554 0.0306894 0.0186556 0 -3.4 -5.68434e-14 9.57319 0.02566 0.00919754 0.25 -2.2 0.4 -5.54192e-05 2.18203e-05 -2.90853e-05 0 -8.3 1 22.2158 2.25641 -0.758182 0 -4.65 0 14.8206 -0.0162442 -0.00361354 -1.13687e-13 -3.3 0 12.3551 -0.0118904 -0.00121732 0.5 -2.15 -0.8 -5.54192e-05 2.18203e-05 -2.90853e-05 0 -7.75 -0.2 47.1015 0.228354 -2.10098 0 -3.8 -5.68434e-14 14.2902 -0.0186859 -0.00262708 0 -3.4 0 11.975 -0.013026 -0.00569965 0.75 -1.75 -1.85 -5.54192e-05 2.18203e-05 -2.90853e-05 0 -7.15 -1 65.2912 3.05928 -7.34298 0 -3 -5.68434e-14 80.3621 -4.71515e-05 0.0150547 -5.68434e-14 -2.35 1.13687e-13 66.5859 0.0201367 0.0212425 8 7.10543e-15 -5.68434e-14 16.3078 -17.5537 21.9314 0 -45 -1 -0.137214 35.2875 -8.40103 0 -41 -2 -0.787824 -16.7035 4.05437 -1.13687e-13 -7.5 12.5 4.28011e-06 1.7438 -9.35285e-06 0 0 4 5.77138 -7.59018 11.0971 -8 1.42109e-14 -2.84217e-14 1.73284 4.69147 -24.3873 0 -45 -1 0.328738 11.8333 4.18052 0 -41 -2 3.40913 -13.9317 -18.8395 0 -7.5 12.5 -7.07024e-07 1.50361e-06 -3.98667e-05 0 -1.11022e-16 4 -2.04466 3.62805 22.5232 
